<svg width="1440" height="148" viewBox="0 0 1440 148" fill="none" xmlns="http://www.w3.org/2000/svg">
<path fill-rule="evenodd" clip-rule="evenodd" d="M0 18.3969L61.625 25.4025C123.25 32.9085 246.5 46.9196 369.75 39.9141C493 32.9085 616.25 3.88541 739.5 0.38262C862.75 -3.12017 986 18.3969 1109.25 25.4025C1232.5 32.9085 1355.75 25.4025 1417.37 21.8997L1479 18.3969V148H1417.37C1355.75 148 1232.5 148 1109.25 148C986 148 862.75 148 739.5 148C616.25 148 493 148 369.75 148C246.5 148 123.25 148 61.625 148H0V18.3969Z" fill="white"/>
</svg>
